<svg height="700pt" preserveAspectRatio="xMidYMid meet" viewBox="0 0 700 700" width="700pt" xmlns="http://www.w3.org/2000/svg"><g transform="matrix(.1 0 0 -.1 0 700)"><path d="m3215 5691-1120-1119-92-7c-50-3-102-8-115-10s-45-6-72-10c-120-15-302-66-459-129-362-145-692-403-931-729-225-306-361-655-410-1053-13-103-15-454-2-514 2-14 10-59 16-100 77-523 379-1037 805-1374 249-197 616-371 865-412 14-2 36-7 50-10 13-3 40-8 60-10 19-2 46-7 60-10 14-2 71-7 128-11l102-6v212 211l-37 1c-37 1-52 3-143 13-347 39-718 214-986 465-268 252-468 616-528 961-3 19-8 45-10 57-10 49-19 164-20 258-5 306 89 656 243 908 22 37 41 71 41 76s3 11 8 13c4 1 34 39 66 83 109 146 304 326 462 427 107 69 333 175 409 193 11 3 61 16 110 29 111 29 180 40 313 50l72 6v-95-95l-37-1c-145-4-361-50-498-107-77-32-187-84-195-92-3-3-34-23-70-44-230-140-442-374-570-631-87-176-132-326-159-523-11-88-7-343 8-422 7-36 14-74 16-85 34-200 161-472 313-665 63-81 226-234 322-302 150-107 414-227 555-252 17-3 44-8 60-11 17-3 37-8 45-10 13-4 100-13 183-19l27-2v188c0 103-3 188-7 189-235 26-412 91-602 223-118 81-282 256-333 356-7 14-15 27-18 30-11 9-72 145-92 200-94 269-85 594 23 851 17 41 36 86 42 102 6 15 15 27 19 27s8 6 8 13c0 19 109 169 165 228 137 143 281 241 454 309 54 21 228 66 266 69 11 1 31 2 45 4 25 2 25 1 28-90 1-51-1-93-5-94-143-9-342-81-474-171-287-197-452-512-450-858 1-105 3-122 37-275 1-5 14-41 28-80 132-347 463-609 824-651l42-5v233 234l-73 22c-227 66-391 290-389 531 1 47 3 93 5 101 44 173 131 297 262 375 47 28 167 75 191 75 2 0 4-134 4-297v-298h1118l1117 1 2 1318 1 1319-199-199-198-198-61-1c-33 0-60 2-60 5s116 122 259 264l258 258v164c0 90-2 164-4 164-3 0-197-193-433-429l-429-428-57 3c-31 2-58 5-60 6-1 2 219 225 490 496l493 492v166c1 91-1 164-3 162s-301-300-664-662l-660-660-52 1c-29 1-58 1-65 2s315 328 715 728l727 727 1 169 1 169-898-898-899-899h-65-65l964 965 964 965v153c0 83-1 152-2 152 0 0-505-504-1121-1119z"/><path d="m4714 1310-1-1120 1120 2 1121 3 1 1105c0 608-1 1111-3 1118-3 9-236 12-1121 12h-1117zm2145 518c-1-244-4-429-6-413-8 67-46 210-74 276-37 91-80 166-141 246l-48 64 132 134c73 73 134 134 136 134 1 1 1-198 1-441zm-278 30c141-201 206-443 177-661-15-112-18-127-39-190-97-288-320-504-614-593-81-25-105-27-250-28-137-1-172 3-245 22-136 37-286 114-372 190l-27 24 652 653c359 360 655 654 659 654 4 1 31-32 59-71zm279-1116v-458h-455c-250 0-453 1-452 2 1 2 27 7 57 13 107 19 122 23 188 47 344 129 607 452 647 797 4 31 9 57 11 57s4-206 4-458zm-1640-248c130-97 278-162 444-193l91-18-437 1c-302 0-435 3-430 11 8 14 246 254 252 254 3 1 39-24 80-55z"/><path d="m4326 2208c-28-346-160-716-368-1028-247-370-619-668-1039-833-103-41-290-98-359-111-23-4-48-8-125-21-16-3-64-8-105-11-41-4-77-8-79-10s467-4 1042-4h1047v1050c0 578-2 1050-4 1050-1 0-6-37-10-82z"/></g></svg>