<svg xmlns="http://www.w3.org/2000/svg">
	<symbol id="logo" viewBox="0 0 263 135">
		<g fill="none" fill-rule="evenodd">
			<path fill="#FFA492" d="M113.37 29.45a7.47 7.47 0 0 0-3.48-.93c-2 0-3.45.5-4.37 1.51-.92 1.01-1.39 2.72-1.39 5.13 0 2.08.44 3.66 1.3 4.75.86 1.09 2.3 1.63 4.33 1.63 1.1 0 1.98-.15 2.63-.45.65-.3.98-.71.98-1.25V29.45zm6.6-14.84v25.95c0 1.4-.49 2.58-1.47 3.56a9.37 9.37 0 0 1-3.88 2.23c-1.6.5-3.32.76-5.13.76-3.84 0-6.8-.9-8.9-2.72-2.1-1.81-3.15-4.95-3.15-9.4 0-3.75.92-6.66 2.75-8.72 1.83-2.07 4.51-3.1 8.05-3.1 2.11 0 3.82.38 5.13 1.16V14.6h6.6zM132.87 32.67h8.34c-.2-1.6-.63-2.75-1.27-3.44-.64-.68-1.58-1.02-2.83-1.02-2.38 0-3.8 1.48-4.24 4.46m14.95 4.23h-14.9c.56 3.12 2.66 4.68 6.29 4.68 1.1 0 2.17-.15 3.23-.47 1.06-.3 2.18-.72 3.37-1.22v5.7a21.27 21.27 0 0 1-8.21 1.52c-2.3 0-4.3-.47-6.02-1.4a9.81 9.81 0 0 1-4.02-4.04 12.8 12.8 0 0 1-1.43-6.2c0-3.92.98-6.96 2.92-9.11 1.95-2.16 4.73-3.24 8.33-3.24 7.05 0 10.53 4.6 10.44 13.78M156.92 46.69a29.3 29.3 0 0 1-3.57-1.23v-5.84a12.43 12.43 0 0 0 7.58 2.72c1.02 0 1.75-.17 2.21-.51.46-.34.7-.81.7-1.4 0-.69-.38-1.2-1.12-1.52-.74-.33-1.93-.69-3.57-1.07a8.48 8.48 0 0 1-4.26-2.14c-1.12-1.07-1.67-2.63-1.67-4.69 0-1.75.44-3.19 1.33-4.32a7.77 7.77 0 0 1 3.37-2.47c1.36-.52 2.76-.78 4.22-.78 1.78 0 3.23.15 4.35.46 1.12.32 2.2.8 3.28 1.45v5.22a43.96 43.96 0 0 0-3.53-1.78 7.32 7.32 0 0 0-2.9-.54c-1.1 0-1.91.17-2.45.51-.54.35-.8.83-.8 1.45 0 .75.3 1.29.89 1.63.6.34 1.55.7 2.85 1.05 1.5.38 2.67.76 3.53 1.14a5.84 5.84 0 0 1 2.32 1.91c.68.9 1.03 2.18 1.03 3.81-.06 2.56-1.03 4.43-2.9 5.6-1.88 1.17-4.26 1.76-7.14 1.76-1.43 0-2.68-.14-3.75-.42M177.13 24.2h6.65l.04 22.24h-6.69V24.2zm-.13-3.4h6.87v-5.12H177v5.13zM198 40.36c.9 1.2 2.11 1.8 3.63 1.8 1.48 0 2.82-.34 4.01-1.02V30.79c0-1.51-1.19-2.27-3.57-2.27-3.63 0-5.44 2.32-5.44 6.95 0 2.06.45 3.68 1.36 4.89m11.6-15.52a5 5 0 0 1 2.57 4.48v17.39c0 3.12-1 5.51-3 7.18-1.98 1.66-4.83 2.5-8.51 2.5-1.9 0-3.57-.14-5-.4a11.29 11.29 0 0 1-3.35-1.08v-5.84c.86.42 2.07.82 3.62 1.2 1.54.4 3.03.59 4.46.59 1.93 0 3.3-.4 4.08-1.16a4.35 4.35 0 0 0 1.18-3.26v-1.3a8.44 8.44 0 0 1-5.7 1.97c-3.16-.15-5.6-1.15-7.33-3-1.72-1.86-2.58-4.6-2.58-8.23 0-4.7 1.07-7.98 3.23-9.84 2.16-1.85 5.29-2.78 9.4-2.78 2.9 0 5.22.53 6.93 1.58M224.56 24.06c2.38-.53 4.5-.8 6.38-.8 3.18 0 5.58.62 7.19 1.87 1.6 1.25 2.4 3.3 2.4 6.15v15.16h-6.64V32.62c0-2.58-1.46-3.88-4.38-3.88a9.44 9.44 0 0 0-3.61.76v16.94h-6.65V25.8c1.16-.62 2.93-1.2 5.31-1.74"/>
			<path fill="#2D66FF" d="M41.83 89.11h44.62V44.53H41.83z"/>
			<path fill="#FFC000" d="M86.39 24.75v-6.66L59.94 44.53h6.66zM50.64 44.53h6.67l29.08-29.07V8.8zM78.53 44.53h7.86v-7.86zM86.39 34.04v-6.66L69.23 44.53h6.67zM86.39 6.18V0L41.83 44.53h6.18z"/>
			<path fill="#ED2020" d="M41.83 131.84h44.62V87.25a44.6 44.6 0 0 1-44.62 44.59"/>
			<path fill="#FFA492" d="M101.64 87.56a29.3 29.3 0 0 1-3.57-1.23V80.5a12.43 12.43 0 0 0 7.58 2.72c1.01 0 1.75-.17 2.21-.51.46-.34.7-.81.7-1.4 0-.7-.38-1.2-1.12-1.52-.75-.33-1.94-.69-3.57-1.07a8.48 8.48 0 0 1-4.26-2.14c-1.12-1.07-1.68-2.63-1.68-4.69 0-1.75.45-3.19 1.34-4.32a7.77 7.77 0 0 1 3.37-2.47c1.35-.52 2.76-.78 4.22-.78 1.78 0 3.23.15 4.35.46 1.11.32 2.2.8 3.28 1.45v5.22a43.96 43.96 0 0 0-3.53-1.78 7.32 7.32 0 0 0-2.9-.54c-1.1 0-1.92.17-2.45.51-.54.35-.8.83-.8 1.45 0 .75.3 1.29.89 1.63.6.34 1.54.7 2.85 1.05 1.49.38 2.66.76 3.53 1.13a5.84 5.84 0 0 1 2.32 1.92c.68.9 1.02 2.18 1.02 3.81-.06 2.56-1.02 4.43-2.9 5.6-1.87 1.17-4.25 1.76-7.14 1.76-1.42 0-2.67-.14-3.74-.42M144.16 64.75l-8.88 22.92c-2.17 5.59-5.06 8.38-8.66 8.38a9.3 9.3 0 0 1-4.01-.8v-5.4c.89.33 1.77.5 2.63.5.9 0 1.64-.26 2.25-.77.61-.5 1.1-1.33 1.45-2.5l-9.05-22.33h7.58l4.77 14.8 4.78-14.8h7.14zM151.52 87.56a29.3 29.3 0 0 1-3.57-1.23V80.5a12.43 12.43 0 0 0 7.59 2.72c1 0 1.74-.17 2.2-.51.47-.34.7-.81.7-1.4 0-.7-.37-1.2-1.12-1.52-.74-.33-1.93-.69-3.57-1.07a8.48 8.48 0 0 1-4.26-2.14c-1.11-1.07-1.67-2.63-1.67-4.69 0-1.75.44-3.19 1.34-4.32a7.77 7.77 0 0 1 3.37-2.47c1.35-.52 2.75-.78 4.21-.78 1.79 0 3.24.15 4.35.46 1.12.32 2.21.8 3.28 1.45v5.22a43.96 43.96 0 0 0-3.52-1.78 7.32 7.32 0 0 0-2.9-.54c-1.1 0-1.92.17-2.46.51-.53.35-.8.83-.8 1.45 0 .75.3 1.29.9 1.63.59.34 1.54.7 2.85 1.05 1.48.38 2.66.76 3.52 1.13a5.84 5.84 0 0 1 2.32 1.92c.69.9 1.03 2.18 1.03 3.81-.06 2.56-1.03 4.43-2.9 5.6-1.88 1.17-4.26 1.76-7.14 1.76-1.43 0-2.68-.14-3.75-.42M175.01 86.38c-1.3-1.22-1.94-2.98-1.94-5.27V69.83h-3.3v-5.08h3.3v-6.2h6.96v6.2H185v5.08h-4.96v10.44c0 .77.17 1.34.5 1.71.32.38.87.56 1.64.56a4.78 4.78 0 0 0 2.82-.93v5.66a8.48 8.48 0 0 1-4.15.93c-2.6 0-4.53-.6-5.83-1.82M197.03 73.54h8.35c-.21-1.61-.63-2.75-1.27-3.44-.65-.68-1.59-1.02-2.84-1.02-2.38 0-3.8 1.48-4.24 4.46m14.95 4.23h-14.9c.56 3.12 2.66 4.68 6.29 4.68 1.1 0 2.18-.15 3.23-.47 1.06-.3 2.18-.72 3.37-1.22v5.7a21.27 21.27 0 0 1-8.2 1.52c-2.3 0-4.3-.47-6.03-1.4a9.81 9.81 0 0 1-4.02-4.04 12.8 12.8 0 0 1-1.42-6.2c0-3.92.97-6.96 2.92-9.11 1.95-2.16 4.72-3.24 8.32-3.24 7.05 0 10.53 4.6 10.44 13.78M250.84 65.98c1.52 1.23 2.28 3.29 2.28 6.17v15.16h-6.65V73.5c0-2.59-1.46-3.88-4.37-3.88-1.22 0-2.25.28-3.08.85.06.71.09 1.28.09 1.7V87.3h-6.65V73.5c0-2.59-1.46-3.88-4.37-3.88-1.2 0-2.3.25-3.3.76V87.3h-6.65V66.67a22 22 0 0 1 5.3-1.74c2.39-.54 4.51-.8 6.39-.8 3 0 5.22.53 6.65 1.6a20 20 0 0 1 7.36-1.6c3.15 0 5.49.61 7 1.85M129.44 106.68c1.52 1.23 2.29 3.28 2.3 6.17l.07 15.16-6.64.03-.07-13.82c0-2.6-1.47-3.88-4.39-3.86-1.22 0-2.24.29-3.07.86.06.71.09 1.28.1 1.7l.06 15.15-6.64.03-.07-13.82c-.01-2.59-1.47-3.87-4.39-3.86-1.19 0-2.29.26-3.3.78l.08 16.94-6.65.03-.1-20.64a21.87 21.87 0 0 1 5.3-1.77c2.38-.54 4.51-.82 6.38-.83 3-.01 5.23.51 6.66 1.57a19.8 19.8 0 0 1 7.36-1.64c3.15-.01 5.49.6 7 1.82M144.64 114.17l8.35-.04c-.22-1.6-.65-2.75-1.29-3.43-.64-.68-1.59-1.02-2.84-1-2.38 0-3.78 1.5-4.22 4.47m14.97 4.16l-14.9.07c.58 3.12 2.68 4.67 6.31 4.65 1.1 0 2.18-.16 3.23-.48 1.06-.31 2.18-.73 3.37-1.24l.02 5.7a21.25 21.25 0 0 1-8.2 1.56c-2.29.01-4.3-.45-6.03-1.38a9.8 9.8 0 0 1-4.03-4.01 12.78 12.78 0 0 1-1.46-6.2c-.02-3.91.94-6.96 2.88-9.12 1.94-2.17 4.7-3.26 8.3-3.27 7.05-.04 10.56 4.54 10.51 13.72M171.24 114.05l8.34-.04c-.22-1.6-.65-2.75-1.29-3.43-.64-.68-1.59-1.02-2.83-1.01-2.39 0-3.8 1.5-4.22 4.48m14.96 4.16l-14.9.07c.58 3.12 2.69 4.67 6.31 4.65 1.1 0 2.18-.17 3.24-.48 1.05-.32 2.17-.73 3.36-1.24l.03 5.7a21.26 21.26 0 0 1-8.2 1.56c-2.3 0-4.3-.45-6.04-1.38a9.8 9.8 0 0 1-4.03-4.02 12.77 12.77 0 0 1-1.46-6.19c-.02-3.92.94-6.96 2.88-9.13 1.94-2.16 4.7-3.25 8.3-3.27 7.06-.03 10.56 4.55 10.51 13.73M195.81 126.77c-1.3-1.21-1.95-2.96-1.96-5.25l-.05-11.28-3.3.01-.03-5.08 3.3-.01-.03-6.2 6.96-.03.03 6.2 4.96-.03.02 5.08-4.95.03.05 10.43c0 .77.16 1.34.5 1.71.32.37.87.56 1.65.55a4.74 4.74 0 0 0 2.8-.95l.03 5.66a8.5 8.5 0 0 1-4.14.96c-2.6.01-4.54-.59-5.84-1.8M215.18 125.97c-1.9-1.54-2.86-3.85-2.87-6.94l-.07-13.96 6.65-.03.07 13.42c0 1.43.33 2.49.97 3.18.64.7 1.66 1.04 3.06 1.04 1.4-.01 2.42-.37 3.05-1.07.64-.7.96-1.76.95-3.19l-.07-13.42 6.25-.03.07 13.96c.01 3.12-.88 5.45-2.67 6.99-1.8 1.54-4.32 2.31-7.6 2.33-3.3.01-5.9-.75-7.8-2.28M254.89 121.23c.86-1.01 1.28-2.7 1.27-5.08-.01-2.15-.4-3.76-1.16-4.84-.77-1.08-2.07-1.62-3.91-1.6-2.65 0-3.97.52-3.97 1.53l.05 10.61c.54.32 1.13.56 1.8.7.64.15 1.28.22 1.9.22 1.82-.01 3.16-.52 4.02-1.54m4.88-14.3c2 1.87 3.02 5 3.04 9.4.02 3.55-.87 6.39-2.64 8.53-1.77 2.15-4.2 3.23-7.3 3.25a12 12 0 0 1-5.67-1.18l.04 8.6-6.52.04-.12-25.86c0-1.82.99-3.19 3-4.12 2-.93 4.58-1.42 7.73-1.46 3.63-.02 6.44.91 8.44 2.8"/>
			<path fill="#0D1CD3" d="M41.83 123.51a35.33 35.33 0 0 1-34.4-35.25 35.33 35.33 0 0 1 34.4-35.25v-8.38C18.65 45.14 0 64.47 0 88.26c0 23.8 18.65 43.13 41.83 43.64v-8.39z"/>
			<path fill="#0D1CD3" d="M41.83 77.29v-9.37c-10.4.95-18.6 9.7-18.6 20.34 0 10.65 8.2 19.4 18.6 20.34v-9.36a11.14 11.14 0 0 1 0-21.95"/>
			<path fill="#0D1CD3" d="M11.15 88.26a31.6 31.6 0 0 0 30.68 31.54v-7.48a24.17 24.17 0 0 1-22.3-24.06c0-12.69 9.84-23.1 22.3-24.05v-7.48a31.6 31.6 0 0 0-30.68 31.53"/>
		</g>
	</symbol>
	<symbol id="header-homepage" viewBox="0 0 604 186">
		<g fill="none" fill-rule="evenodd">
			<path fill="#FFA492" d="M0 93h93V47H0z"/>
			<path fill="#FFC000" d="M139 93h47V0h-47z"/>
			<path stroke="#FFC000" stroke-width="3" d="M94.5 91.5h43v-90h-43v90z"/>
			<path fill="#FFC000" d="M324.95 93V47L279 93z"/>
			<path fill="#ED2020" d="M0 186h93V93H0v93zm2.9-2.9h87.2V95.9H2.9v87.2z"/>
			<path fill="#2D66FF" d="M232 186h93V93h-93v93zm2.9-2.9h87.2V95.9h-87.2v87.2z"/>
			<path fill="#2D66FF" d="M234.06 186l-2.06-1.99L322.94 93l2.06 1.99z"/>
			<path fill="#ED2020" d="M186 93H93.06l-.06.06L139.47 139 186 93zm-7.02 2.87l-39.51 39.07-39.51-39.07h79.02z"/>
			<path fill="#FFA492" d="M185.94 186l.06-.06L139.53 140 93 186z"/>
			<path fill="#FFC000" d="M3 182h46v-46H3z"/>
			<path fill="#ED2020" d="M239.33 92.91l.1-45.9 5.87.02-.11 45.9-5.86-.02zM279 47.11l-7.33-.02-.1 45.9-5.87-.02.11-45.9-10.26-.02 2.94.01-.11 45.9-5.87-.02.11-45.9-20.51-.04-.11 45.9 46.89.1.11-45.9z"/>
			<path fill="#0D1CD3" d="M186 139h46V93h-46z"/>
			<path fill="#ED2020" d="M511 93h46V0h-46z"/>
			<path fill="#0D1CD3" d="M325 93h93V46h-93v47zm2.9-2.94h87.2V48.94h-87.2v41.12z"/>
			<path fill="#FFC000" d="M508.88 93L418 2.06 420.12 0 511 90.94z"/>
			<path fill="#FFA492" d="M418 93h93V0h-93v93zm2.9-2.9h87.2V2.9h-87.2v87.2z"/>
			<g>
				<path fill="#ED2020" d="M511 46.5V93h46.5A46.5 46.5 0 0 1 511 46.5M557.5 93H604V46.5A46.5 46.5 0 0 1 557.5 93"/>
				<path fill="#FFA492" d="M557.5 19.54a27 27 0 0 0-26.96 26.96 27 27 0 0 0 26.96 26.96 27 27 0 0 0 26.96-26.96 27 27 0 0 0-26.96-26.96m0 58.3a31.37 31.37 0 0 1-31.34-31.34 31.37 31.37 0 0 1 31.34-31.34 31.37 31.37 0 0 1 31.34 31.34 31.37 31.37 0 0 1-31.34 31.34"/>
				<path fill="#2D66FF" d="M558 38.65c-4.5 0-8.17 3.52-8.17 7.85s3.67 7.85 8.18 7.85c4.5 0 8.17-3.52 8.17-7.85s-3.67-7.85-8.17-7.85m0 19.98c-6.97 0-12.64-5.44-12.64-12.13s5.67-12.13 12.64-12.13c6.96 0 12.63 5.44 12.63 12.13s-5.67 12.13-12.63 12.13"/>
				<path fill="#ED2020" d="M557.5 0H511v46.5A46.5 46.5 0 0 1 557.5 0M557.5 0A46.5 46.5 0 0 1 604 46.5V0h-46.5z"/>
			</g>
			<path fill="#2D66FF" d="M325 47h93V1h-93z"/>
			<path fill="#0D1CD3" d="M325 47h93V0h-93v47zm2.9-2.94h87.2V2.94h-87.2v41.12z"/>
		</g>
	</symbol>
	<symbol id="header-events" viewBox="0 0 604 186">
		<g fill="none" fill-rule="evenodd">
			<path fill="#FFA492" d="M604 93h-93V47h93z"/>
			<path fill="#FFC000" d="M465 93h-47V0h47z"/>
			<path stroke="#FFC000" stroke-width="3" d="M509.5 91.5h-43v-90h43v90z"/>
			<path fill="#FFC000" d="M279.05 93V47L325 93z"/>
			<path fill="#ED2020" d="M604 186h-93V93h93v93zm-2.9-2.9h-87.2V95.9h87.2v87.2z"/>
			<path fill="#2D66FF" d="M372 186h-93V93h93v93zm-2.9-2.9h-87.2V95.9h87.2v87.2z"/>
			<path fill="#2D66FF" d="M369.94 186l2.06-1.99L281.06 93 279 94.99z"/>
			<path fill="#ED2020" d="M418 93h92.94l.06.06L464.53 139 418 93zm7.02 2.87l39.51 39.07 39.51-39.07h-79.02z"/>
			<path fill="#FFA492" d="M418.06 186l-.06-.06L464.47 140 511 186z"/>
			<path fill="#FFC000" d="M601 182h-46v-46h46z"/>
			<path fill="#ED2020" d="M364.67 92.91l-.1-45.9-5.87.02.11 45.9 5.86-.02zM325 47.11l7.33-.02.1 45.9 5.87-.02-.11-45.9 10.26-.02-2.94.01.11 45.9 5.87-.02-.11-45.9 20.51-.04.11 45.9-46.89.1-.11-45.9z"/>
			<path fill="#0D1CD3" d="M418 139h-46V93h46z"/>
			<path fill="#ED2020" d="M93 93H47V0h46z"/>
			<path fill="#0D1CD3" d="M279 93h-93V46h93v47zm-2.9-2.94h-87.2V48.94h87.2v41.12z"/>
			<path fill="#FFC000" d="M95.12 93L186 2.06 183.88 0 93 90.94z"/>
			<path fill="#FFA492" d="M186 93H93V0h93v93zm-2.9-2.9H95.9V2.9h87.2v87.2z"/>
			<g>
				<path fill="#ED2020" d="M93 46.5V93H46.5A46.5 46.5 0 0 0 93 46.5M46.5 93H0V46.5A46.5 46.5 0 0 0 46.5 93"/>
				<path fill="#FFA492" d="M46.5 19.54A27 27 0 0 1 73.46 46.5 27 27 0 0 1 46.5 73.46 27 27 0 0 1 19.54 46.5 27 27 0 0 1 46.5 19.54m0 58.3A31.37 31.37 0 0 0 77.84 46.5 31.37 31.37 0 0 0 46.5 15.16 31.37 31.37 0 0 0 15.16 46.5 31.37 31.37 0 0 0 46.5 77.84"/>
				<path fill="#2D66FF" d="M46 38.65c4.5 0 8.17 3.52 8.17 7.85S50.5 54.35 46 54.35c-4.5 0-8.17-3.52-8.17-7.85s3.67-7.85 8.17-7.85m0 19.98c6.97 0 12.64-5.44 12.64-12.13s-5.67-12.13-12.64-12.13c-6.96 0-12.63 5.44-12.63 12.13s5.67 12.13 12.63 12.13"/>
				<path fill="#ED2020" d="M46.5 0H93v46.5A46.5 46.5 0 0 0 46.5 0M46.5 0A46.5 46.5 0 0 0 0 46.5V0h46.5z"/>
			</g>
			<path fill="#2D66FF" d="M279 47h-93V1h93z"/>
			<path fill="#0D1CD3" d="M279 47h-93V0h93v47zm-2.9-2.94h-87.2V2.94h87.2v41.12z"/>
		</g>
	</symbol>
	<symbol id="play" viewBox="0 0 40 29">
		<g fill="#8BC7FC" fill-rule="nonzero">
			<path d="M37 28.7H3c-1.66 0-3-1.36-3-3.02V3.02A3.01 3.01 0 0 1 3 0h34c1.66 0 3 1.35 3 3.02v22.66a3.01 3.01 0 0 1-3 3.02zM3 2a1 1 0 0 0-1 1.01v22.66c0 .26.1.52.3.71a1 1 0 0 0 .7.3h34a1 1 0 0 0 1-1.01V3.02c0-.27-.1-.52-.3-.71A1 1 0 0 0 37 2H3z"/>
			<path d="M16.1 10.02v8.8c0 .58.33 1.1.85 1.35a1.5 1.5 0 0 0 1.58-.16l5.58-4.4a1.51 1.51 0 0 0 0-2.38l-5.58-4.4a1.5 1.5 0 0 0-2.43 1.2z"/>
		</g>
	</symbol>
	<symbol id="back" viewBox="0 0 50 50">
		<g fill="#FFC000" fill-rule="nonzero">
			<path d="M25 4.07A20.91 20.91 0 0 1 45.93 25 20.91 20.91 0 0 1 25 45.93 20.91 20.91 0 0 1 4.07 25 20.91 20.91 0 0 1 25 4.07zM25 0C11.21 0 0 11.21 0 25s11.21 25 25 25 25-11.21 25-25S38.79 0 25 0z"/>
			<path d="M35.79 27H14.57a2 2 0 0 1-2-2c0-1.07.93-2 2-2h21.21a2 2 0 1 1 0 4z"/>
			<path d="M21.07 34.43c-.57 0-1.07-.22-1.5-.64l-6.79-7.43a1.99 1.99 0 0 1 0-2.72l6.79-7.42c.79-.86 2-.86 2.86-.15.85.8.85 2 .14 2.86L17 25l5.57 6.07c.79.86.72 2.07-.14 2.86-.36.36-.86.5-1.36.5z"/>
		</g>
	</symbol>
	<symbol id="shape1" viewBox="0 0 50 50">
		<g fill="none" fill-rule="evenodd">
			<path fill="#0A0F2B" fill-rule="nonzero" d="M0 0h50v50H0z"/>
			<path fill="#D9E5FF" d="M50 25a25 25 0 1 1-50 0 25 25 0 0 1 50 0"/>
		</g>
	</symbol>
	<symbol id="shape2" viewBox="0 0 50 50">
		<g fill="none" fill-rule="evenodd">
			<path fill="#0A0F2B" fill-rule="nonzero" d="M0 0h50v50H0z"/>
			<path fill="#FFDB76" d="M0 50h50V25H0zM25 25h25V0H25z"/>
		</g>
	</symbol>
	<symbol id="shape3" viewBox="0 0 50 50">
		<g fill="none" fill-rule="evenodd">
			<path fill="#0A0F2B" fill-rule="nonzero" d="M0 0h50v50H0z"/>
			<path fill="#FFC000" d="M0 50h50V0H0v50zm1.56-1.56h46.88V1.56H1.56v46.88z"/>
			<path fill="#FFC000" d="M24.9 26.22L1.17 50 .08 48.94l23.75-23.8L0 1.34 1.05.24l23.84 23.83L48.92 0 50 1.06 25.96 25.15l23.76 23.74-1.05 1.08L24.9 26.22z"/>
		</g>
	</symbol>
	<symbol id="shape4" viewBox="0 0 50 50">
		<g fill="none" fill-rule="evenodd">
			<path fill="#0A0F2B" fill-rule="nonzero" d="M0 0h50v50H0z"/>
			<path fill="#FF7452" d="M50 0H.03L0 .03 24.98 25 50 0zm-3.77 1.56L24.98 22.8 3.74 1.56h42.49zM49.97 50l.03-.03L25.02 25 0 50z"/>
		</g>
	</symbol>
	<symbol id="shape5" viewBox="0 0 50 50">
		<g fill="none" fill-rule="evenodd">
			<path fill="#0A0F2B" fill-rule="nonzero" d="M0 0h50v50H0z"/>
			<path fill="#FF4F5C" d="M1.52 48.48h46.96V1.52H1.52v46.96zM0 50h50V0H0v50z"/>
			<path fill="#FF4F5C" d="M43.36 25.18a18.18 18.18 0 1 1-36.36 0 18.18 18.18 0 0 1 36.36 0"/>
		</g>
	</symbol>
	<symbol id="shape6" viewBox="0 0 50 50">
		<g fill="none" fill-rule="evenodd">
			<path fill="#0A0F2B" fill-rule="nonzero" d="M0 0h50v50H0z"/>
			<path fill="#8BC7FC" d="M25 50h25V25a25 25 0 0 1-25 25M25 0a25 25 0 0 1 25 25V0H25zM0 50h25V0H0z"/>
		</g>
	</symbol>
	<symbol id="shape7" viewBox="0 0 50 50">
		<g fill="none" fill-rule="evenodd">
			<path fill="#0A0F2B" fill-rule="nonzero" d="M0 0h50v50H0z"/>
			<path fill="#D9E5FF" d="M50 25l-.03-25L25 .03A24.99 24.99 0 0 1 50 25M25 50l25-.03L49.97 25A24.99 24.99 0 0 1 25 50M25 25.32H0C.18 39.13 11.37 50.18 25 50V25.32zM3.9 24.95L3.96.01h3.11l-.06 24.95H3.9zM25 .05h-3.9l-.06 24.94h-3.11L17.99.03 12.53.03h1.56l-.06 24.94h-3.12L10.97.03.06 0 0 24.94l24.94.06L25 .06z"/>
		</g>
	</symbol>
</svg>
